<svg width="170" height="89" viewBox="0 0 170 89" fill="none" xmlns="http://www.w3.org/2000/svg">
<rect x="0.5" y="1.1153" width="169" height="86.7191" fill="#293748" fill-opacity="0.77" stroke="#EC9C24"/>
<path d="M20.2689 21.368H14.8929V18.2H29.5329V21.368H24.1569V35H20.2689V21.368ZM34.6556 23.792C35.1036 23.168 35.7036 22.696 36.4556 22.376C37.2236 22.056 38.1036 21.896 39.0956 21.896V25.352C38.6796 25.32 38.3996 25.304 38.2556 25.304C37.1836 25.304 36.3436 25.608 35.7356 26.216C35.1276 26.808 34.8236 27.704 34.8236 28.904V35H31.0796V22.088H34.6556V23.792ZM41.3218 22.088H45.0658V35H41.3218V22.088ZM43.1938 20.288C42.5058 20.288 41.9458 20.088 41.5138 19.688C41.0818 19.288 40.8658 18.792 40.8658 18.2C40.8658 17.608 41.0818 17.112 41.5138 16.712C41.9458 16.312 42.5058 16.112 43.1938 16.112C43.8818 16.112 44.4418 16.304 44.8738 16.688C45.3058 17.072 45.5218 17.552 45.5218 18.128C45.5218 18.752 45.3058 19.272 44.8738 19.688C44.4418 20.088 43.8818 20.288 43.1938 20.288ZM56.1725 21.896C57.3725 21.896 58.4605 22.176 59.4365 22.736C60.4285 23.28 61.2045 24.056 61.7645 25.064C62.3245 26.056 62.6045 27.216 62.6045 28.544C62.6045 29.872 62.3245 31.04 61.7645 32.048C61.2045 33.04 60.4285 33.816 59.4365 34.376C58.4605 34.92 57.3725 35.192 56.1725 35.192C54.5245 35.192 53.2285 34.672 52.2845 33.632V39.656H48.5405V22.088H52.1165V23.576C53.0445 22.456 54.3965 21.896 56.1725 21.896ZM55.5245 32.12C56.4845 32.12 57.2685 31.8 57.8765 31.16C58.5005 30.504 58.8125 29.632 58.8125 28.544C58.8125 27.456 58.5005 26.592 57.8765 25.952C57.2685 25.296 56.4845 24.968 55.5245 24.968C54.5645 24.968 53.7725 25.296 53.1485 25.952C52.5405 26.592 52.2365 27.456 52.2365 28.544C52.2365 29.632 52.5405 30.504 53.1485 31.16C53.7725 31.8 54.5645 32.12 55.5245 32.12ZM80.2357 34.376C79.8677 34.648 79.4117 34.856 78.8677 35C78.3397 35.128 77.7797 35.192 77.1877 35.192C75.6517 35.192 74.4597 34.8 73.6117 34.016C72.7797 33.232 72.3637 32.08 72.3637 30.56V25.256H70.3717V22.376H72.3637V19.232H76.1077V22.376H79.3237V25.256H76.1077V30.512C76.1077 31.056 76.2437 31.48 76.5157 31.784C76.8037 32.072 77.2037 32.216 77.7157 32.216C78.3077 32.216 78.8117 32.056 79.2277 31.736L80.2357 34.376ZM88.0829 35.192C86.7229 35.192 85.4989 34.912 84.4109 34.352C83.3389 33.776 82.4989 32.984 81.8909 31.976C81.2829 30.968 80.9789 29.824 80.9789 28.544C80.9789 27.264 81.2829 26.12 81.8909 25.112C82.4989 24.104 83.3389 23.32 84.4109 22.76C85.4989 22.184 86.7229 21.896 88.0829 21.896C89.4429 21.896 90.6589 22.184 91.7309 22.76C92.8029 23.32 93.6429 24.104 94.2509 25.112C94.8589 26.12 95.1629 27.264 95.1629 28.544C95.1629 29.824 94.8589 30.968 94.2509 31.976C93.6429 32.984 92.8029 33.776 91.7309 34.352C90.6589 34.912 89.4429 35.192 88.0829 35.192ZM88.0829 32.12C89.0429 32.12 89.8269 31.8 90.4349 31.16C91.0589 30.504 91.3709 29.632 91.3709 28.544C91.3709 27.456 91.0589 26.592 90.4349 25.952C89.8269 25.296 89.0429 24.968 88.0829 24.968C87.1229 24.968 86.3309 25.296 85.7069 25.952C85.0829 26.592 84.7709 27.456 84.7709 28.544C84.7709 29.632 85.0829 30.504 85.7069 31.16C86.3309 31.8 87.1229 32.12 88.0829 32.12ZM22.9089 59.4L20.6529 61.752V66H16.7889V49.2H20.6529V57.048L28.0929 49.2H32.4129L25.4529 56.688L32.8209 66H28.2849L22.9089 59.4ZM46.1924 53.088L40.3604 66.792C39.7684 68.28 39.0324 69.328 38.1524 69.936C37.2884 70.544 36.2404 70.848 35.0084 70.848C34.3364 70.848 33.6724 70.744 33.0164 70.536C32.3604 70.328 31.8244 70.04 31.4084 69.672L32.7764 67.008C33.0644 67.264 33.3924 67.464 33.7604 67.608C34.1444 67.752 34.5204 67.824 34.8884 67.824C35.4004 67.824 35.8164 67.696 36.1364 67.44C36.4564 67.2 36.7444 66.792 37.0004 66.216L37.0484 66.096L31.4564 53.088H35.3204L38.9444 61.848L42.5924 53.088H46.1924ZM51.2962 54.792C51.7442 54.168 52.3442 53.696 53.0962 53.376C53.8642 53.056 54.7442 52.896 55.7362 52.896V56.352C55.3202 56.32 55.0402 56.304 54.8962 56.304C53.8242 56.304 52.9842 56.608 52.3762 57.216C51.7682 57.808 51.4642 58.704 51.4642 59.904V66H47.7202V53.088H51.2962V54.792ZM71.1652 53.088V63.84C71.1652 66.208 70.5492 67.968 69.3172 69.12C68.0852 70.272 66.2852 70.848 63.9172 70.848C62.6692 70.848 61.4852 70.696 60.3652 70.392C59.2452 70.088 58.3172 69.648 57.5812 69.072L59.0692 66.384C59.6132 66.832 60.3012 67.184 61.1332 67.44C61.9652 67.712 62.7972 67.848 63.6292 67.848C64.9252 67.848 65.8772 67.552 66.4852 66.96C67.1092 66.384 67.4212 65.504 67.4212 64.32V63.768C66.4452 64.84 65.0852 65.376 63.3412 65.376C62.1572 65.376 61.0692 65.12 60.0772 64.608C59.1012 64.08 58.3252 63.344 57.7492 62.4C57.1732 61.456 56.8852 60.368 56.8852 59.136C56.8852 57.904 57.1732 56.816 57.7492 55.872C58.3252 54.928 59.1012 54.2 60.0772 53.688C61.0692 53.16 62.1572 52.896 63.3412 52.896C65.2132 52.896 66.6372 53.512 67.6132 54.744V53.088H71.1652ZM64.0852 62.304C65.0772 62.304 65.8852 62.016 66.5092 61.44C67.1492 60.848 67.4692 60.08 67.4692 59.136C67.4692 58.192 67.1492 57.432 66.5092 56.856C65.8852 56.264 65.0772 55.968 64.0852 55.968C63.0932 55.968 62.2772 56.264 61.6372 56.856C60.9972 57.432 60.6772 58.192 60.6772 59.136C60.6772 60.08 60.9972 60.848 61.6372 61.44C62.2772 62.016 63.0932 62.304 64.0852 62.304ZM87.4659 53.088L81.6339 66.792C81.0419 68.28 80.3059 69.328 79.4259 69.936C78.5619 70.544 77.5139 70.848 76.2819 70.848C75.6099 70.848 74.9459 70.744 74.2899 70.536C73.6339 70.328 73.0979 70.04 72.6819 69.672L74.0499 67.008C74.3379 67.264 74.6659 67.464 75.0339 67.608C75.4179 67.752 75.7939 67.824 76.1619 67.824C76.6739 67.824 77.0899 67.696 77.4099 67.44C77.7299 67.2 78.0179 66.792 78.2739 66.216L78.3219 66.096L72.7299 53.088H76.5939L80.2179 61.848L83.8659 53.088H87.4659ZM99.3913 63.12V66H87.8713V63.744L94.4473 55.968H88.0393V53.088H99.1753V55.344L92.5993 63.12H99.3913ZM106.135 66.192C105.063 66.192 104.015 66.064 102.991 65.808C101.967 65.536 101.151 65.2 100.543 64.8L101.791 62.112C102.367 62.48 103.063 62.784 103.879 63.024C104.695 63.248 105.495 63.36 106.279 63.36C107.863 63.36 108.655 62.968 108.655 62.184C108.655 61.816 108.439 61.552 108.007 61.392C107.575 61.232 106.911 61.096 106.015 60.984C104.959 60.824 104.087 60.64 103.399 60.432C102.711 60.224 102.111 59.856 101.599 59.328C101.103 58.8 100.854 58.048 100.854 57.072C100.854 56.256 101.087 55.536 101.551 54.912C102.031 54.272 102.719 53.776 103.615 53.424C104.527 53.072 105.599 52.896 106.831 52.896C107.743 52.896 108.647 53 109.543 53.208C110.455 53.4 111.207 53.672 111.799 54.024L110.551 56.688C109.415 56.048 108.175 55.728 106.831 55.728C106.031 55.728 105.431 55.84 105.031 56.064C104.631 56.288 104.431 56.576 104.431 56.928C104.431 57.328 104.647 57.608 105.079 57.768C105.511 57.928 106.199 58.08 107.143 58.224C108.199 58.4 109.063 58.592 109.735 58.8C110.407 58.992 110.991 59.352 111.487 59.88C111.983 60.408 112.231 61.144 112.231 62.088C112.231 62.888 111.991 63.6 111.511 64.224C111.031 64.848 110.327 65.336 109.399 65.688C108.487 66.024 107.399 66.192 106.135 66.192ZM122.869 65.376C122.501 65.648 122.045 65.856 121.501 66C120.973 66.128 120.413 66.192 119.821 66.192C118.285 66.192 117.093 65.8 116.245 65.016C115.413 64.232 114.997 63.08 114.997 61.56V56.256H113.005V53.376H114.997V50.232H118.741V53.376H121.957V56.256H118.741V61.512C118.741 62.056 118.877 62.48 119.148 62.784C119.437 63.072 119.837 63.216 120.349 63.216C120.941 63.216 121.445 63.056 121.861 62.736L122.869 65.376ZM130.178 52.896C132.178 52.896 133.714 53.376 134.786 54.336C135.858 55.28 136.394 56.712 136.394 58.632V66H132.89V64.392C132.186 65.592 130.874 66.192 128.954 66.192C127.962 66.192 127.098 66.024 126.362 65.688C125.642 65.352 125.09 64.888 124.706 64.296C124.322 63.704 124.13 63.032 124.13 62.28C124.13 61.08 124.578 60.136 125.474 59.448C126.386 58.76 127.786 58.416 129.674 58.416H132.65C132.65 57.6 132.402 56.976 131.906 56.544C131.41 56.096 130.666 55.872 129.674 55.872C128.986 55.872 128.306 55.984 127.634 56.208C126.978 56.416 126.418 56.704 125.954 57.072L124.61 54.456C125.314 53.96 126.154 53.576 127.13 53.304C128.122 53.032 129.138 52.896 130.178 52.896ZM129.89 63.672C130.53 63.672 131.098 63.528 131.594 63.24C132.09 62.936 132.442 62.496 132.65 61.92V60.6H130.082C128.546 60.6 127.778 61.104 127.778 62.112C127.778 62.592 127.962 62.976 128.33 63.264C128.714 63.536 129.234 63.672 129.89 63.672ZM147.631 52.896C149.231 52.896 150.519 53.376 151.495 54.336C152.487 55.296 152.983 56.72 152.983 58.608V66H149.239V59.184C149.239 58.16 149.015 57.4 148.567 56.904C148.119 56.392 147.471 56.136 146.623 56.136C145.679 56.136 144.927 56.432 144.367 57.024C143.807 57.6 143.527 58.464 143.527 59.616V66H139.783V53.088H143.359V54.6C143.855 54.056 144.471 53.64 145.207 53.352C145.943 53.048 146.751 52.896 147.631 52.896Z" fill="#FEFDF4"/>
<path d="M153.879 23.9475C151.422 22.8652 149.579 20.332 146.779 20.0073C143.683 19.6562 140.589 19.548 137.49 19.3667C133.604 19.1268 129.61 20.9814 125.834 17.5969C124.179 16.1051 121.896 17.5589 121.323 20.3027C120.787 22.871 119.621 22.6721 118.344 21.8765C116.313 20.6157 114.23 20.1243 112.001 20.3846C110.351 20.5806 108.381 22.0842 108.945 23.538C110.052 26.393 108.308 26.4251 107.363 27.1506C106.394 27.8877 105.611 28.6483 105 30.067C106.538 30.7544 107.809 31.0938 108.858 32.3896C110.32 34.2091 111.496 32.4598 112.631 31.3161C112.697 31.2546 113.153 31.6378 113.327 31.9128C114.7 34.0775 116.926 34.1828 119.477 35.9262C115.864 36.1777 114.068 40.077 110.421 38.9245C108.583 38.3395 106.53 40.3345 106.864 43.3854C107.215 46.5885 108.964 45.6349 110.515 44.7018C111.105 44.3537 111.557 44.6403 112.069 45.1113C115.629 48.3612 119.183 45.3599 122.74 45.0001C123.394 44.9387 123.462 44.1431 123.657 43.4264C124.746 39.4218 129.208 37.0846 132.344 38.7344C133.724 39.4657 135.941 38.6788 136.096 38.044C137.262 33.2028 140.528 34.4431 143.144 33.7879C143.701 33.6445 144.522 33.5597 144.738 33.0975C146.713 28.9174 150.5 28.7214 153.512 26.9488C155.402 25.8343 155.449 24.6408 153.879 23.9475Z" fill="#EC9C24"/>
</svg>
