<svg width="55" height="55" viewBox="0 0 55 55" fill="none" xmlns="http://www.w3.org/2000/svg">
<ellipse cx="27.5" cy="27.1406" rx="27.5" ry="27.1406" fill="#FFFAFA" fill-opacity="0.9"/>
<g clip-path="url(#clip0)">
<path d="M39.7631 40.1088L33.3085 33.8404C34.9987 32.028 36.0373 29.631 36.0373 26.9935C36.0365 21.3512 31.3276 16.7779 25.5184 16.7779C19.7092 16.7779 15.0003 21.3512 15.0003 26.9935C15.0003 32.6357 19.7092 37.209 25.5184 37.209C28.0283 37.209 30.3304 36.3522 32.1387 34.9278L38.6183 41.2209C38.934 41.5279 39.4466 41.5279 39.7623 41.2209C40.0788 40.914 40.0788 40.4158 39.7631 40.1088ZM25.5184 35.6373C20.6032 35.6373 16.6187 31.7673 16.6187 26.9935C16.6187 22.2196 20.6032 18.3496 25.5184 18.3496C30.4336 18.3496 34.4181 22.2196 34.4181 26.9935C34.4181 31.7673 30.4336 35.6373 25.5184 35.6373Z" fill="black"/>
</g>
<defs>
<clipPath id="clip0">
<rect width="25" height="24.6733" fill="white" transform="translate(15 16.7779)"/>
</clipPath>
</defs>
</svg>
