<svg width="84" height="90" viewBox="0 0 84 90" fill="none" xmlns="http://www.w3.org/2000/svg">
<ellipse cx="41.9443" cy="44" rx="37.2842" ry="40" fill="#00FFF0" fill-opacity="0.25"/>
<path d="M54.1786 46.875H1.7477C0.782968 46.875 0 46.035 0 45C0 43.965 0.782968 43.125 1.7477 43.125H54.1786C55.1433 43.125 55.9263 43.965 55.9263 45C55.9263 46.035 55.1433 46.875 54.1786 46.875Z" fill="#00FFF0"/>
<path d="M40.1968 61.8741C39.7494 61.8741 39.302 61.6904 38.9594 61.3266C38.2778 60.5954 38.2778 59.4066 38.9594 58.6754L51.7071 44.9991L38.9629 31.3266C38.2813 30.5954 38.2813 29.4066 38.9629 28.6754C39.6445 27.9441 40.7526 27.9441 41.4342 28.6754L55.4158 43.6754C56.0974 44.4066 56.0974 45.5954 55.4158 46.3266L41.4342 61.3266C41.0916 61.6904 40.6442 61.8741 40.1968 61.8741V61.8741Z" fill="#00FFF0"/>
<path d="M41.9442 86.25C25.6731 86.25 11.1043 75.1987 5.68997 58.7512C5.3684 57.7725 5.84726 56.7038 6.75607 56.3588C7.66836 56.0213 8.66455 56.5275 8.98613 57.5025C13.9076 72.4537 27.1517 82.5 41.9442 82.5C61.2178 82.5 76.8981 65.6775 76.8981 45C76.8981 24.3225 61.2178 7.5 41.9442 7.5C27.1517 7.5 13.9076 17.5462 8.98962 32.5012C8.66805 33.4762 7.66836 33.9825 6.75956 33.645C5.85076 33.3 5.37189 32.2312 5.69347 31.2525C11.1043 14.8012 25.6731 3.75 41.9442 3.75C63.1437 3.75 80.3935 22.2562 80.3935 45C80.3935 67.7438 63.1437 86.25 41.9442 86.25Z" fill="#00FFF0"/>
</svg>
