<svg width="71" height="71" viewBox="0 0 71 71" fill="none" xmlns="http://www.w3.org/2000/svg">
<path d="M42.2949 35.5C42.2949 39.2528 39.2528 42.2949 35.5 42.2949C31.7472 42.2949 28.7051 39.2528 28.7051 35.5C28.7051 31.7472 31.7472 28.7051 35.5 28.7051C39.2528 28.7051 42.2949 31.7472 42.2949 35.5Z" fill="white"/>
<path d="M51.3911 23.4784C51.0645 22.5933 50.5434 21.7922 49.8663 21.1346C49.2087 20.4575 48.4081 19.9364 47.5224 19.6097C46.8041 19.3307 45.7251 18.9987 43.7376 18.9082C41.5877 18.8102 40.9431 18.7891 35.5002 18.7891C30.0568 18.7891 29.4122 18.8096 27.2628 18.9077C25.2753 18.9987 24.1957 19.3307 23.478 19.6097C22.5924 19.9364 21.7912 20.4575 21.1341 21.1346C20.457 21.7922 19.9359 22.5928 19.6087 23.4784C19.3298 24.1967 18.9977 25.2763 18.9073 27.2638C18.8092 29.4132 18.7881 30.0578 18.7881 35.5012C18.7881 40.9441 18.8092 41.5887 18.9073 43.7386C18.9977 45.7261 19.3298 46.8051 19.6087 47.5234C19.9359 48.4091 20.4565 49.2097 21.1336 49.8673C21.7912 50.5444 22.5918 51.0655 23.4775 51.3921C24.1957 51.6716 25.2753 52.0037 27.2628 52.0941C29.4122 52.1922 30.0563 52.2128 35.4997 52.2128C40.9436 52.2128 41.5882 52.1922 43.7371 52.0941C45.7246 52.0037 46.8041 51.6716 47.5224 51.3921C49.3002 50.7063 50.7054 49.3012 51.3911 47.5234C51.6701 46.8051 52.0022 45.7261 52.0932 43.7386C52.1912 41.5887 52.2118 40.9441 52.2118 35.5012C52.2118 30.0578 52.1912 29.4132 52.0932 27.2638C52.0027 25.2763 51.6707 24.1967 51.3911 23.4784V23.4784ZM35.5002 45.9682C29.7188 45.9682 25.0321 41.2821 25.0321 35.5006C25.0321 29.7192 29.7188 25.0331 35.5002 25.0331C41.2811 25.0331 45.9678 29.7192 45.9678 35.5006C45.9678 41.2821 41.2811 45.9682 35.5002 45.9682ZM46.3816 27.0655C45.0307 27.0655 43.9354 25.9702 43.9354 24.6192C43.9354 23.2683 45.0307 22.173 46.3816 22.173C47.7326 22.173 48.8279 23.2683 48.8279 24.6192C48.8273 25.9702 47.7326 27.0655 46.3816 27.0655Z" fill="white"/>
<path d="M35.4198 0C15.861 0 0 15.8969 0 35.5C0 55.1031 15.861 71 35.4198 71C54.9787 71 70.8397 55.1031 70.8397 35.5C70.8397 15.8969 54.9787 0 35.4198 0ZM55.6359 43.9043C55.5375 46.0743 55.1933 47.5558 54.6906 48.8526C53.634 51.5908 51.4743 53.7554 48.7423 54.8144C47.4489 55.3182 45.9702 55.6627 43.8057 55.7618C41.6368 55.8609 40.9439 55.8848 35.4204 55.8848C29.8963 55.8848 29.204 55.8609 27.0345 55.7618C24.87 55.6627 23.3913 55.3182 22.0979 54.8144C20.7403 54.3025 19.5113 53.5003 18.4952 52.4629C17.4608 51.4451 16.6603 50.2128 16.1496 48.8526C15.647 47.5563 15.3027 46.0743 15.2043 43.9048C15.1043 41.7305 15.0811 41.036 15.0811 35.5C15.0811 29.964 15.1043 29.2695 15.2038 27.0957C15.3022 24.9257 15.6459 23.4442 16.1485 22.1474C16.6593 20.7872 17.4602 19.5549 18.4952 18.5371C19.5107 17.4997 20.7403 16.6975 22.0974 16.1856C23.3913 15.6818 24.8694 15.3373 27.0345 15.2382C29.2034 15.1391 29.8963 15.1152 35.4198 15.1152C40.9434 15.1152 41.6363 15.1391 43.8051 15.2387C45.9702 15.3373 47.4484 15.6818 48.7423 16.1851C50.0994 16.697 51.3289 17.4997 52.345 18.5371C53.3795 19.5554 54.1804 20.7872 54.6906 22.1474C55.1938 23.4442 55.5375 24.9257 55.6364 27.0957C55.7353 29.2695 55.7586 29.964 55.7586 35.5C55.7586 41.036 55.7353 41.7305 55.6359 43.9043V43.9043Z" fill="white" fill-opacity="0.68"/>
</svg>
