<svg width="71" height="71" viewBox="0 0 71 71" fill="none" xmlns="http://www.w3.org/2000/svg">
<path d="M35.5 0C15.8969 0 0 15.8969 0 35.5C0 55.1031 15.8969 71 35.5 71C55.1031 71 71 55.1031 71 35.5C71 15.8969 55.1031 0 35.5 0ZM36.2524 56.1692C36.2519 56.1692 36.2529 56.1692 36.2524 56.1692H36.2437C32.6876 56.1675 29.1931 55.2759 26.0898 53.5837L14.8265 56.5375L17.841 45.5304C15.9814 42.3095 15.0031 38.6553 15.0047 34.9117C15.0096 23.2005 24.5411 13.6727 36.2524 13.6727C41.9358 13.6749 47.2709 15.8871 51.2821 19.9016C55.2938 23.9166 57.5017 29.2533 57.4995 34.9285C57.4947 46.6403 47.9621 56.1692 36.2524 56.1692V56.1692Z" fill="white" fill-opacity="0.73"/>
<path d="M36.2595 17.2598C26.5183 17.2598 18.5961 25.1787 18.5918 34.9128C18.5907 38.2485 19.5246 41.497 21.2921 44.3078L21.7119 44.9757L19.9276 51.4906L26.6115 49.7377L27.2566 50.1201C29.9678 51.7289 33.076 52.5799 36.2448 52.581H36.2519C45.9855 52.581 53.9076 44.6615 53.912 34.9269C53.9136 30.2093 52.0784 25.774 48.7443 22.4372C45.4102 19.1004 40.9759 17.2614 36.2595 17.2598V17.2598ZM46.6469 42.5029C46.2043 43.7423 44.0836 44.8739 43.0636 45.0266C42.1487 45.1631 40.9916 45.22 39.7198 44.8165C38.9484 44.5716 37.9598 44.245 36.6928 43.6984C31.3675 41.3995 27.8893 36.039 27.6239 35.6847C27.3585 35.3304 25.4561 32.8067 25.4561 30.1942C25.4561 27.5822 26.8276 26.2978 27.314 25.767C27.801 25.2356 28.3763 25.1029 28.73 25.1029C29.0837 25.1029 29.438 25.1061 29.7473 25.1213C30.0734 25.1375 30.5111 24.9972 30.9417 26.0324C31.3843 27.0952 32.446 29.7072 32.5787 29.9726C32.7114 30.2386 32.7997 30.5484 32.6231 30.9027C32.446 31.257 31.8577 32.0213 31.296 32.7179C31.0604 33.0099 30.7532 33.2699 31.0631 33.8013C31.3724 34.3321 32.4384 36.0704 34.0163 37.4777C36.0444 39.2858 37.7551 39.8459 38.2859 40.1119C38.8162 40.3773 39.1261 40.3329 39.4359 39.9792C39.7452 39.6249 40.7631 38.4294 41.1168 37.898C41.4705 37.3666 41.8248 37.4555 42.3112 37.6326C42.7982 37.8092 45.408 39.0935 45.9389 39.359C46.4697 39.6249 46.8234 39.7577 46.9562 39.9792C47.0894 40.2008 47.0894 41.263 46.6469 42.5029V42.5029Z" fill="white"/>
</svg>
